<mxfile host="Electron" agent="Mozilla/5.0 (Windows NT 10.0; Win64; x64) AppleWebKit/537.36 (KHTML, like Gecko) draw.io/27.0.9 Chrome/134.0.6998.205 Electron/35.4.0 Safari/537.36" version="27.0.9">
  <diagram name="Page-1" id="XrAPtmdhj2a-p8gGQiQd">
    <mxGraphModel dx="1028" dy="595" grid="1" gridSize="10" guides="1" tooltips="1" connect="1" arrows="1" fold="1" page="1" pageScale="1" pageWidth="850" pageHeight="1100" math="0" shadow="0">
      <root>
        <mxCell id="0" />
        <mxCell id="1" parent="0" />
        <mxCell id="FJSiQoMHgi8VUeKLVnL5-61" style="edgeStyle=orthogonalEdgeStyle;shape=connector;rounded=0;orthogonalLoop=1;jettySize=auto;html=1;strokeColor=default;align=center;verticalAlign=middle;fontFamily=Helvetica;fontSize=11;fontColor=default;labelBackgroundColor=default;startFill=0;endArrow=none;" edge="1" parent="1" source="FJSiQoMHgi8VUeKLVnL5-1" target="FJSiQoMHgi8VUeKLVnL5-2">
          <mxGeometry relative="1" as="geometry" />
        </mxCell>
        <mxCell id="FJSiQoMHgi8VUeKLVnL5-1" value="PC1" style="shape=mxgraph.cisco.computers_and_peripherals.pc;sketch=0;html=1;pointerEvents=1;dashed=0;fillColor=#036897;strokeColor=#ffffff;strokeWidth=2;verticalLabelPosition=bottom;verticalAlign=top;align=center;outlineConnect=0;" vertex="1" parent="1">
          <mxGeometry x="22.5" y="60" width="78" height="70" as="geometry" />
        </mxCell>
        <mxCell id="FJSiQoMHgi8VUeKLVnL5-26" style="edgeStyle=orthogonalEdgeStyle;shape=connector;rounded=0;orthogonalLoop=1;jettySize=auto;html=1;strokeColor=default;align=center;verticalAlign=middle;fontFamily=Helvetica;fontSize=11;fontColor=default;labelBackgroundColor=default;startFill=0;endArrow=none;" edge="1" parent="1" source="FJSiQoMHgi8VUeKLVnL5-2" target="FJSiQoMHgi8VUeKLVnL5-15">
          <mxGeometry relative="1" as="geometry" />
        </mxCell>
        <mxCell id="FJSiQoMHgi8VUeKLVnL5-2" value="SW1" style="shape=mxgraph.cisco.switches.workgroup_switch;sketch=0;html=1;pointerEvents=1;dashed=0;fillColor=#036897;strokeColor=#ffffff;strokeWidth=2;verticalLabelPosition=bottom;verticalAlign=top;align=center;outlineConnect=0;" vertex="1" parent="1">
          <mxGeometry x="230" y="70" width="100" height="50" as="geometry" />
        </mxCell>
        <mxCell id="FJSiQoMHgi8VUeKLVnL5-3" value="SW2" style="shape=mxgraph.cisco.switches.workgroup_switch;sketch=0;html=1;pointerEvents=1;dashed=0;fillColor=#036897;strokeColor=#ffffff;strokeWidth=2;verticalLabelPosition=bottom;verticalAlign=top;align=center;outlineConnect=0;" vertex="1" parent="1">
          <mxGeometry x="480" y="70" width="101" height="50" as="geometry" />
        </mxCell>
        <mxCell id="FJSiQoMHgi8VUeKLVnL5-23" style="edgeStyle=orthogonalEdgeStyle;rounded=0;orthogonalLoop=1;jettySize=auto;html=1;endArrow=none;startFill=0;" edge="1" parent="1" source="FJSiQoMHgi8VUeKLVnL5-4" target="FJSiQoMHgi8VUeKLVnL5-3">
          <mxGeometry relative="1" as="geometry" />
        </mxCell>
        <mxCell id="FJSiQoMHgi8VUeKLVnL5-4" value="PC2" style="shape=mxgraph.cisco.computers_and_peripherals.pc;sketch=0;html=1;pointerEvents=1;dashed=0;fillColor=#036897;strokeColor=#ffffff;strokeWidth=2;verticalLabelPosition=bottom;verticalAlign=top;align=center;outlineConnect=0;" vertex="1" parent="1">
          <mxGeometry x="730" y="60" width="78" height="70" as="geometry" />
        </mxCell>
        <mxCell id="FJSiQoMHgi8VUeKLVnL5-46" style="edgeStyle=orthogonalEdgeStyle;shape=connector;rounded=0;orthogonalLoop=1;jettySize=auto;html=1;strokeColor=default;align=center;verticalAlign=middle;fontFamily=Helvetica;fontSize=11;fontColor=default;labelBackgroundColor=default;startFill=0;endArrow=none;" edge="1" parent="1" source="FJSiQoMHgi8VUeKLVnL5-7" target="FJSiQoMHgi8VUeKLVnL5-9">
          <mxGeometry relative="1" as="geometry" />
        </mxCell>
        <mxCell id="FJSiQoMHgi8VUeKLVnL5-7" value="R1" style="shape=mxgraph.cisco.routers.10700;sketch=0;html=1;pointerEvents=1;dashed=0;fillColor=#036897;strokeColor=#ffffff;strokeWidth=2;verticalLabelPosition=bottom;verticalAlign=top;align=center;outlineConnect=0;" vertex="1" parent="1">
          <mxGeometry x="370" y="490" width="78" height="53" as="geometry" />
        </mxCell>
        <mxCell id="FJSiQoMHgi8VUeKLVnL5-41" value="" style="edgeStyle=orthogonalEdgeStyle;shape=connector;rounded=0;orthogonalLoop=1;jettySize=auto;html=1;strokeColor=default;align=center;verticalAlign=middle;fontFamily=Helvetica;fontSize=11;fontColor=default;labelBackgroundColor=default;startFill=0;endArrow=none;" edge="1" parent="1" source="FJSiQoMHgi8VUeKLVnL5-8" target="FJSiQoMHgi8VUeKLVnL5-15">
          <mxGeometry relative="1" as="geometry" />
        </mxCell>
        <mxCell id="FJSiQoMHgi8VUeKLVnL5-8" value="DHCP" style="shape=mxgraph.cisco.servers.file_server;sketch=0;html=1;pointerEvents=1;dashed=0;fillColor=#036897;strokeColor=#ffffff;strokeWidth=2;verticalLabelPosition=bottom;verticalAlign=top;align=center;outlineConnect=0;" vertex="1" parent="1">
          <mxGeometry x="40" y="333" width="43" height="58" as="geometry" />
        </mxCell>
        <mxCell id="FJSiQoMHgi8VUeKLVnL5-9" value="Simulated 8.8.8.8&lt;div&gt;8.8.8.8/24&lt;/div&gt;" style="shape=mxgraph.cisco.servers.file_server;sketch=0;html=1;pointerEvents=1;dashed=0;fillColor=#036897;strokeColor=#ffffff;strokeWidth=2;verticalLabelPosition=bottom;verticalAlign=top;align=center;outlineConnect=0;" vertex="1" parent="1">
          <mxGeometry x="650" y="487.5" width="43" height="58" as="geometry" />
        </mxCell>
        <mxCell id="FJSiQoMHgi8VUeKLVnL5-10" value="DNS" style="shape=mxgraph.cisco.servers.file_server;sketch=0;html=1;pointerEvents=1;dashed=0;fillColor=#036897;strokeColor=#ffffff;strokeWidth=2;verticalLabelPosition=bottom;verticalAlign=top;align=center;outlineConnect=0;" vertex="1" parent="1">
          <mxGeometry x="387.5" y="710" width="43" height="58" as="geometry" />
        </mxCell>
        <mxCell id="FJSiQoMHgi8VUeKLVnL5-15" value="MLS1" style="shape=mxgraph.cisco.switches.layer_3_switch;sketch=0;html=1;pointerEvents=1;dashed=0;fillColor=#036897;strokeColor=#ffffff;strokeWidth=2;verticalLabelPosition=bottom;verticalAlign=top;align=center;outlineConnect=0;" vertex="1" parent="1">
          <mxGeometry x="248.5" y="330" width="64" height="64" as="geometry" />
        </mxCell>
        <mxCell id="FJSiQoMHgi8VUeKLVnL5-16" value="MLS2" style="shape=mxgraph.cisco.switches.layer_3_switch;sketch=0;html=1;pointerEvents=1;dashed=0;fillColor=#036897;strokeColor=#ffffff;strokeWidth=2;verticalLabelPosition=bottom;verticalAlign=top;align=center;outlineConnect=0;" vertex="1" parent="1">
          <mxGeometry x="498.5" y="330" width="64" height="64" as="geometry" />
        </mxCell>
        <mxCell id="FJSiQoMHgi8VUeKLVnL5-24" style="edgeStyle=orthogonalEdgeStyle;shape=connector;rounded=0;orthogonalLoop=1;jettySize=auto;html=1;entryX=0.5;entryY=0;entryDx=0;entryDy=0;entryPerimeter=0;strokeColor=default;align=center;verticalAlign=middle;fontFamily=Helvetica;fontSize=11;fontColor=default;labelBackgroundColor=default;startFill=0;endArrow=none;" edge="1" parent="1" source="FJSiQoMHgi8VUeKLVnL5-3" target="FJSiQoMHgi8VUeKLVnL5-16">
          <mxGeometry relative="1" as="geometry" />
        </mxCell>
        <mxCell id="FJSiQoMHgi8VUeKLVnL5-25" style="edgeStyle=orthogonalEdgeStyle;shape=connector;rounded=0;orthogonalLoop=1;jettySize=auto;html=1;entryX=0.5;entryY=0;entryDx=0;entryDy=0;entryPerimeter=0;strokeColor=default;align=center;verticalAlign=middle;fontFamily=Helvetica;fontSize=11;fontColor=default;labelBackgroundColor=default;startFill=0;endArrow=none;" edge="1" parent="1">
          <mxGeometry relative="1" as="geometry">
            <mxPoint x="541" y="120" as="sourcePoint" />
            <mxPoint x="541" y="330" as="targetPoint" />
          </mxGeometry>
        </mxCell>
        <mxCell id="FJSiQoMHgi8VUeKLVnL5-27" style="edgeStyle=orthogonalEdgeStyle;shape=connector;rounded=0;orthogonalLoop=1;jettySize=auto;html=1;strokeColor=default;align=center;verticalAlign=middle;fontFamily=Helvetica;fontSize=11;fontColor=default;labelBackgroundColor=default;startFill=0;endArrow=none;" edge="1" parent="1">
          <mxGeometry relative="1" as="geometry">
            <mxPoint x="291" y="130" as="sourcePoint" />
            <mxPoint x="291" y="340" as="targetPoint" />
          </mxGeometry>
        </mxCell>
        <mxCell id="FJSiQoMHgi8VUeKLVnL5-30" style="shape=connector;rounded=0;orthogonalLoop=1;jettySize=auto;html=1;entryX=0;entryY=0.5;entryDx=0;entryDy=0;entryPerimeter=0;strokeColor=default;align=center;verticalAlign=middle;fontFamily=Helvetica;fontSize=11;fontColor=default;labelBackgroundColor=default;startFill=0;endArrow=none;" edge="1" parent="1" source="FJSiQoMHgi8VUeKLVnL5-2" target="FJSiQoMHgi8VUeKLVnL5-16">
          <mxGeometry relative="1" as="geometry" />
        </mxCell>
        <mxCell id="FJSiQoMHgi8VUeKLVnL5-34" style="shape=connector;rounded=0;orthogonalLoop=1;jettySize=auto;html=1;entryX=1;entryY=0.5;entryDx=0;entryDy=0;entryPerimeter=0;strokeColor=default;align=center;verticalAlign=middle;fontFamily=Helvetica;fontSize=11;fontColor=default;labelBackgroundColor=default;startFill=0;endArrow=none;" edge="1" parent="1" source="FJSiQoMHgi8VUeKLVnL5-3" target="FJSiQoMHgi8VUeKLVnL5-15">
          <mxGeometry relative="1" as="geometry" />
        </mxCell>
        <mxCell id="FJSiQoMHgi8VUeKLVnL5-36" style="shape=connector;rounded=0;orthogonalLoop=1;jettySize=auto;html=1;entryX=1;entryY=0.5;entryDx=0;entryDy=0;entryPerimeter=0;strokeColor=default;align=center;verticalAlign=middle;fontFamily=Helvetica;fontSize=11;fontColor=default;labelBackgroundColor=default;startFill=0;endArrow=none;" edge="1" parent="1">
          <mxGeometry relative="1" as="geometry">
            <mxPoint x="510.49801498127334" y="110" as="sourcePoint" />
            <mxPoint x="312.91" y="352" as="targetPoint" />
          </mxGeometry>
        </mxCell>
        <mxCell id="FJSiQoMHgi8VUeKLVnL5-39" style="shape=connector;rounded=0;orthogonalLoop=1;jettySize=auto;html=1;entryX=0;entryY=0.5;entryDx=0;entryDy=0;entryPerimeter=0;strokeColor=default;align=center;verticalAlign=middle;fontFamily=Helvetica;fontSize=11;fontColor=default;labelBackgroundColor=default;startFill=0;endArrow=none;" edge="1" parent="1">
          <mxGeometry relative="1" as="geometry">
            <mxPoint x="300.4588014981273" y="110" as="sourcePoint" />
            <mxPoint x="498.5" y="352" as="targetPoint" />
          </mxGeometry>
        </mxCell>
        <mxCell id="FJSiQoMHgi8VUeKLVnL5-47" value="" style="edgeStyle=orthogonalEdgeStyle;shape=connector;rounded=0;orthogonalLoop=1;jettySize=auto;html=1;entryX=0.5;entryY=0;entryDx=0;entryDy=0;entryPerimeter=0;strokeColor=default;align=center;verticalAlign=middle;fontFamily=Helvetica;fontSize=11;fontColor=default;labelBackgroundColor=default;startFill=0;endArrow=none;" edge="1" parent="1" source="FJSiQoMHgi8VUeKLVnL5-7" target="FJSiQoMHgi8VUeKLVnL5-10">
          <mxGeometry relative="1" as="geometry" />
        </mxCell>
        <mxCell id="FJSiQoMHgi8VUeKLVnL5-51" value="" style="shape=connector;rounded=0;orthogonalLoop=1;jettySize=auto;html=1;entryX=0.5;entryY=0;entryDx=0;entryDy=0;entryPerimeter=0;strokeColor=default;align=center;verticalAlign=middle;fontFamily=Helvetica;fontSize=11;fontColor=default;labelBackgroundColor=default;startFill=0;endArrow=none;" edge="1" parent="1" source="FJSiQoMHgi8VUeKLVnL5-15" target="FJSiQoMHgi8VUeKLVnL5-7">
          <mxGeometry relative="1" as="geometry" />
        </mxCell>
        <mxCell id="FJSiQoMHgi8VUeKLVnL5-52" value="" style="shape=connector;rounded=0;orthogonalLoop=1;jettySize=auto;html=1;entryX=0.5;entryY=0;entryDx=0;entryDy=0;entryPerimeter=0;strokeColor=default;align=center;verticalAlign=middle;fontFamily=Helvetica;fontSize=11;fontColor=default;labelBackgroundColor=default;startFill=0;endArrow=none;" edge="1" parent="1" source="FJSiQoMHgi8VUeKLVnL5-16" target="FJSiQoMHgi8VUeKLVnL5-7">
          <mxGeometry relative="1" as="geometry" />
        </mxCell>
        <mxCell id="FJSiQoMHgi8VUeKLVnL5-54" value="10.30.0.0/30" style="text;html=1;align=center;verticalAlign=middle;resizable=0;points=[];autosize=1;strokeColor=none;fillColor=none;fontFamily=Helvetica;fontSize=11;fontColor=default;labelBackgroundColor=default;" vertex="1" parent="1">
          <mxGeometry x="120" y="333" width="80" height="30" as="geometry" />
        </mxCell>
        <mxCell id="FJSiQoMHgi8VUeKLVnL5-55" value="10.40.0.0/30" style="text;html=1;align=center;verticalAlign=middle;resizable=0;points=[];autosize=1;strokeColor=none;fillColor=none;fontFamily=Helvetica;fontSize=11;fontColor=default;labelBackgroundColor=default;rotation=45;" vertex="1" parent="1">
          <mxGeometry x="307.5" y="430" width="80" height="30" as="geometry" />
        </mxCell>
        <mxCell id="FJSiQoMHgi8VUeKLVnL5-56" value="10.50.0.0/30" style="text;html=1;align=center;verticalAlign=middle;resizable=0;points=[];autosize=1;strokeColor=none;fillColor=none;fontFamily=Helvetica;fontSize=11;fontColor=default;labelBackgroundColor=default;rotation=-45;" vertex="1" parent="1">
          <mxGeometry x="430.5" y="430" width="80" height="30" as="geometry" />
        </mxCell>
        <mxCell id="FJSiQoMHgi8VUeKLVnL5-57" value="10.60.0.0/24" style="text;html=1;align=center;verticalAlign=middle;resizable=0;points=[];autosize=1;strokeColor=none;fillColor=none;fontFamily=Helvetica;fontSize=11;fontColor=default;labelBackgroundColor=default;rotation=0;" vertex="1" parent="1">
          <mxGeometry x="410" y="618" width="80" height="30" as="geometry" />
        </mxCell>
        <mxCell id="FJSiQoMHgi8VUeKLVnL5-58" value="8.8.8.0/24" style="text;html=1;align=center;verticalAlign=middle;resizable=0;points=[];autosize=1;strokeColor=none;fillColor=none;fontFamily=Helvetica;fontSize=11;fontColor=default;labelBackgroundColor=default;" vertex="1" parent="1">
          <mxGeometry x="510.5" y="490" width="70" height="30" as="geometry" />
        </mxCell>
        <mxCell id="FJSiQoMHgi8VUeKLVnL5-63" value="10.10.0.1/24" style="text;html=1;align=center;verticalAlign=middle;resizable=0;points=[];autosize=1;strokeColor=none;fillColor=none;fontFamily=Helvetica;fontSize=11;fontColor=default;labelBackgroundColor=default;" vertex="1" parent="1">
          <mxGeometry x="20.5" y="150" width="80" height="30" as="geometry" />
        </mxCell>
        <mxCell id="FJSiQoMHgi8VUeKLVnL5-64" value="10.20.0.1/24" style="text;html=1;align=center;verticalAlign=middle;resizable=0;points=[];autosize=1;strokeColor=none;fillColor=none;fontFamily=Helvetica;fontSize=11;fontColor=default;labelBackgroundColor=default;" vertex="1" parent="1">
          <mxGeometry x="730" y="150" width="80" height="30" as="geometry" />
        </mxCell>
        <mxCell id="FJSiQoMHgi8VUeKLVnL5-65" value="10.30.0.5/30" style="text;html=1;align=center;verticalAlign=middle;resizable=0;points=[];autosize=1;strokeColor=none;fillColor=none;fontFamily=Helvetica;fontSize=11;fontColor=default;labelBackgroundColor=default;" vertex="1" parent="1">
          <mxGeometry x="22.5" y="410" width="80" height="30" as="geometry" />
        </mxCell>
        <mxCell id="FJSiQoMHgi8VUeKLVnL5-66" value="10.60.0.5/24" style="text;html=1;align=center;verticalAlign=middle;resizable=0;points=[];autosize=1;strokeColor=none;fillColor=none;fontFamily=Helvetica;fontSize=11;fontColor=default;labelBackgroundColor=default;" vertex="1" parent="1">
          <mxGeometry x="368" y="790" width="80" height="30" as="geometry" />
        </mxCell>
        <mxCell id="FJSiQoMHgi8VUeKLVnL5-67" value="LACP 4" style="text;html=1;align=center;verticalAlign=middle;resizable=0;points=[];autosize=1;strokeColor=none;fillColor=none;fontFamily=Helvetica;fontSize=11;fontColor=default;labelBackgroundColor=default;" vertex="1" parent="1">
          <mxGeometry x="540" y="210" width="60" height="30" as="geometry" />
        </mxCell>
        <mxCell id="FJSiQoMHgi8VUeKLVnL5-68" value="LACP 1" style="text;html=1;align=center;verticalAlign=middle;resizable=0;points=[];autosize=1;strokeColor=none;fillColor=none;fontFamily=Helvetica;fontSize=11;fontColor=default;labelBackgroundColor=default;" vertex="1" parent="1">
          <mxGeometry x="220" y="210" width="60" height="30" as="geometry" />
        </mxCell>
        <mxCell id="FJSiQoMHgi8VUeKLVnL5-69" value="&lt;font style=&quot;font-size: 8px;&quot;&gt;HSRP Group 10 VIP 10.10.0.254 (VLAN 10)&lt;/font&gt;" style="text;html=1;align=center;verticalAlign=middle;resizable=0;points=[];autosize=1;strokeColor=none;fillColor=none;fontFamily=Helvetica;fontSize=11;fontColor=default;labelBackgroundColor=default;" vertex="1" parent="1">
          <mxGeometry x="314" y="361" width="180" height="30" as="geometry" />
        </mxCell>
        <mxCell id="FJSiQoMHgi8VUeKLVnL5-71" value="&lt;font style=&quot;font-size: 8px;&quot;&gt;HSRP Group 20 VIP 10.20.0.254 (VLAN 20)&lt;/font&gt;" style="text;html=1;align=center;verticalAlign=middle;resizable=0;points=[];autosize=1;strokeColor=none;fillColor=none;fontFamily=Helvetica;fontSize=11;fontColor=default;labelBackgroundColor=default;" vertex="1" parent="1">
          <mxGeometry x="319" y="380" width="180" height="30" as="geometry" />
        </mxCell>
        <mxCell id="FJSiQoMHgi8VUeKLVnL5-72" value=".254" style="text;html=1;align=center;verticalAlign=middle;resizable=0;points=[];autosize=1;strokeColor=none;fillColor=none;fontFamily=Helvetica;fontSize=11;fontColor=default;labelBackgroundColor=default;" vertex="1" parent="1">
          <mxGeometry x="208.5" y="363" width="40" height="30" as="geometry" />
        </mxCell>
        <mxCell id="FJSiQoMHgi8VUeKLVnL5-73" value=".1" style="text;html=1;align=center;verticalAlign=middle;resizable=0;points=[];autosize=1;strokeColor=none;fillColor=none;fontFamily=Helvetica;fontSize=11;fontColor=default;labelBackgroundColor=default;" vertex="1" parent="1">
          <mxGeometry x="370" y="535" width="30" height="30" as="geometry" />
        </mxCell>
        <mxCell id="FJSiQoMHgi8VUeKLVnL5-74" value=".9" style="text;html=1;align=center;verticalAlign=middle;resizable=0;points=[];autosize=1;strokeColor=none;fillColor=none;fontFamily=Helvetica;fontSize=11;fontColor=default;labelBackgroundColor=default;" vertex="1" parent="1">
          <mxGeometry x="448" y="515.5" width="30" height="30" as="geometry" />
        </mxCell>
        <mxCell id="FJSiQoMHgi8VUeKLVnL5-75" value="LACP 3" style="text;html=1;align=center;verticalAlign=middle;resizable=0;points=[];autosize=1;strokeColor=none;fillColor=none;fontFamily=Helvetica;fontSize=11;fontColor=default;labelBackgroundColor=default;rotation=-50;" vertex="1" parent="1">
          <mxGeometry x="400" y="180" width="60" height="30" as="geometry" />
        </mxCell>
        <mxCell id="FJSiQoMHgi8VUeKLVnL5-76" value="LACP 2" style="text;html=1;align=center;verticalAlign=middle;resizable=0;points=[];autosize=1;strokeColor=none;fillColor=none;fontFamily=Helvetica;fontSize=11;fontColor=default;labelBackgroundColor=default;rotation=45;" vertex="1" parent="1">
          <mxGeometry x="430.5" y="270" width="60" height="30" as="geometry" />
        </mxCell>
        <mxCell id="FJSiQoMHgi8VUeKLVnL5-78" value="Lab simulated google.com -&amp;gt; 8.8.8.8 (&lt;span style=&quot;background-color: light-dark(#ffffff, var(--ge-dark-color, #121212)); color: light-dark(rgb(0, 0, 0), rgb(255, 255, 255));&quot;&gt;A record)&lt;/span&gt;" style="text;html=1;align=center;verticalAlign=middle;resizable=0;points=[];autosize=1;strokeColor=none;fillColor=none;fontFamily=Helvetica;fontSize=11;fontColor=default;labelBackgroundColor=default;" vertex="1" parent="1">
          <mxGeometry x="284" y="810" width="250" height="30" as="geometry" />
        </mxCell>
        <mxCell id="FJSiQoMHgi8VUeKLVnL5-80" value="VLAN 10 SVI 10.10.0.11 (MLS1), 10.10.0.12 (MLS2)" style="text;html=1;align=center;verticalAlign=middle;resizable=0;points=[];autosize=1;strokeColor=none;fillColor=none;fontFamily=Helvetica;fontSize=11;fontColor=default;labelBackgroundColor=default;" vertex="1" parent="1">
          <mxGeometry x="562.5" y="250" width="280" height="30" as="geometry" />
        </mxCell>
        <mxCell id="FJSiQoMHgi8VUeKLVnL5-81" value="VLAN 20 SVI 10.20.0.11 (MLS1), 10.20.0.12 (MLS2)" style="text;html=1;align=center;verticalAlign=middle;resizable=0;points=[];autosize=1;strokeColor=none;fillColor=none;fontFamily=Helvetica;fontSize=11;fontColor=default;labelBackgroundColor=default;" vertex="1" parent="1">
          <mxGeometry x="562.5" y="280" width="280" height="30" as="geometry" />
        </mxCell>
      </root>
    </mxGraphModel>
  </diagram>
</mxfile>
